:FULLY-SPECIFIED
:FORCE-ALL-JOINTS-BE-3DOF
:DEGREES
162
root 8.29293 16.6217 -14.2329 7.41754 9.06301 -0.618352
lfemur -6.14011 7.65901 -15.3223
ltibia 52.5441 0 0
lfoot 0.48134 12.19 0
ltoes -12.9291 0 0
rfemur -28.2427 2.01307 22.7764
rtibia 29.3959 0 0
rfoot -13.9382 -0.181311 0
rtoes -15.2258 0 0
lowerback -4.859 -1.77063 -0.65886
upperback -1.61301 -2.35132 3.38639
thorax 1.24578 -1.17768 3.70775
lowerneck -18.7097 -7.07632 -14.4743
upperneck 15.0757 -8.60584 14.4282
head 9.11915 -3.49619 6.19293
lclavicle -2.70198e-14 1.99754e-14 0
lhumerus -44.2893 -13.7079 97.1235
lradius 27.6683 0 0
lwrist 4.81011 0 0
lhand -1.58034 -19.0544 0
lfingers 7.12502 0 0
lthumb 24.0739 9.43341 0
rclavicle -2.70198e-14 1.99754e-14 0
rhumerus -45.3036 9.42479 -81.7317
rradius 34.8303 0 0
rwrist -18.9574 0 0
rhand -28.4211 -26.3985 0
rfingers 7.12502 0 0
rthumb -1.79258 -56.3704 0
163
root 8.2685 16.6376 -14.0803 7.47024 9.13461 -0.776628
lfemur -6.76827 7.83234 -14.998
ltibia 53.9268 0 0
lfoot 0.899834 12.5114 0
ltoes -13.1009 0 0
rfemur -27.8687 1.76913 23.2467
rtibia 29.4836 0 0
rfoot -13.6676 0.16187 0
rtoes -15.0581 0 0
lowerback -4.76613 -1.71783 -0.506551
upperback -1.62441 -2.29415 3.42019
thorax 1.16959 -1.14644 3.66676
lowerneck -18.6879 -7.12112 -14.506
upperneck 14.9143 -8.6678 14.5162
head 9.07344 -3.51837 6.21647
lclavicle -2.64947e-14 2.10033e-14 0
lhumerus -44.6805 -13.3793 97.1408
lradius 27.3248 0 0
lwrist 4.65728 0 0
lhand -1.32981 -18.9158 0
lfingers 7.12502 0 0
lthumb 24.3147 9.54689 0
rclavicle -2.64947e-14 2.10033e-14 0
rhumerus -45.2569 9.49075 -81.7004
rradius 34.8612 0 0
rwrist -18.9771 0 0
rhand -28.3869 -26.4807 0
rfingers 7.12502 0 0
rthumb -1.75956 -56.4529 0
164
root 8.24407 16.6536 -13.9278 7.52294 9.20621 -0.934904
lfemur -7.39643 8.00566 -14.6736
ltibia 55.3096 0 0
lfoot 1.31833 12.8327 0
ltoes -13.2728 0 0
rfemur -27.4947 1.52518 23.717
rtibia 29.5713 0 0
rfoot -13.397 0.505052 0
rtoes -14.8903 0 0
lowerback -4.67326 -1.66502 -0.354242
upperback -1.63582 -2.23698 3.45399
thorax 1.09339 -1.1152 3.62578
lowerneck -18.6662 -7.16593 -14.5377
upperneck 14.753 -8.72976 14.6041
head 9.02773 -3.54056 6.24001
lclavicle -2.59695e-14 2.20311e-14 0
lhumerus -45.0717 -13.0506 97.1581
lradius 26.9814 0 0
lwrist 4.50445 0 0
lhand -1.07928 -18.7772 0
lfingers 7.12502 0 0
lthumb 24.5555 9.66038 0
rclavicle -2.59695e-14 2.20311e-14 0
rhumerus -45.2101 9.55672 -81.6691
rradius 34.8921 0 0
rwrist -18.9969 0 0
rhand -28.3527 -26.5628 0
rfingers 7.12502 0 0
rthumb -1.72654 -56.5354 0
165
root 8.21964 16.6696 -13.7752 7.57564 9.27781 -1.09318
lfemur -8.02459 8.17899 -14.3492
ltibia 56.6923 0 0
lfoot 1.73682 13.1541 0
ltoes -13.4446 0 0
rfemur -27.1207 1.28124 24.1873
rtibia 29.659 0 0
rfoot -13.1264 0.848233 0
rtoes -14.7226 0 0
lowerback -4.58039 -1.61222 -0.201933
upperback -1.64723 -2.17981 3.48779
thorax 1.0172 -1.08396 3.58479
lowerneck -18.6444 -7.21073 -14.5694
upperneck 14.5916 -8.79172 14.6921
head 8.98202 -3.56274 6.26355
lclavicle -2.54444e-14 2.3059e-14 0
lhumerus -45.4629 -12.722 97.1754
lradius 26.6379 0 0
lwrist 4.35162 0 0
lhand -0.828752 -18.6386 0
lfingers 7.12502 0 0
lthumb 24.7963 9.77387 0
rclavicle -2.54444e-14 2.3059e-14 0
rhumerus -45.1634 9.62268 -81.6378
rradius 34.923 0 0
rwrist -19.0166 0 0
rhand -28.3185 -26.6449 0
rfingers 7.12502 0 0
rthumb -1.69352 -56.6179 0
